<svg width="48" height="48" viewBox="0 0 48 48" fill="none" xmlns="http://www.w3.org/2000/svg">
<path d="M44 1H4C2.34315 1 1 2.34315 1 4V44C1 45.6569 2.34315 47 4 47H44C45.6569 47 47 45.6569 47 44V4C47 2.34315 45.6569 1 44 1Z" stroke="#C8C8C8" stroke-width="2"/>
<path d="M15.143 6.17188H9.54297C8.4384 6.17188 7.54297 7.06729 7.54297 8.17188V37.0862C7.54297 38.1907 8.4384 39.0862 9.54297 39.0862H15.143C16.2475 39.0862 17.143 38.1907 17.143 37.0862V8.17188C17.143 7.06729 16.2475 6.17188 15.143 6.17188Z" fill="#C8C8C8"/>
<path d="M26.8002 14.4004H21.2002C20.0956 14.4004 19.2002 15.2958 19.2002 16.4004V37.0861C19.2002 38.1907 20.0956 39.0861 21.2002 39.0861H26.8002C27.9048 39.0861 28.8002 38.1907 28.8002 37.0861V16.4004C28.8002 15.2958 27.9048 14.4004 26.8002 14.4004Z" fill="#C8C8C8"/>
<path d="M38.4574 21.2578H32.8574C31.7529 21.2578 30.8574 22.1532 30.8574 23.2578V37.0864C30.8574 38.191 31.7529 39.0864 32.8574 39.0864H38.4574C39.562 39.0864 40.4574 38.191 40.4574 37.0864V23.2578C40.4574 22.1532 39.562 21.2578 38.4574 21.2578Z" fill="#C8C8C8"/>
</svg>
